<?xml version="1.0" encoding="UTF-8" standalone="no"?>
<!DOCTYPE svg PUBLIC "-//W3C//DTD SVG 20010904//EN"
              "http://www.w3.org/TR/2001/REC-SVG-20010904/DTD/svg10.dtd">

<svg xmlns="http://www.w3.org/2000/svg"
     width="144.51mm" height="144.51mm"
     viewBox="0 0 512 512">
  <path id="Selection #3"
        fill="none" stroke="black" stroke-width="1"
        d="M 296.00,8.00
           C 296.00,8.00 312.00,8.00 312.00,8.00
             312.00,8.00 312.00,54.00 312.00,54.00
             312.00,54.00 328.00,51.00 328.00,51.00
             328.00,51.00 328.00,24.00 328.00,24.00
             328.00,24.00 344.00,24.00 344.00,24.00
             344.00,24.00 344.00,47.00 344.00,47.00
             344.00,47.00 392.00,38.00 392.00,38.00
             392.00,38.00 392.00,216.00 392.00,216.00
             392.00,216.00 408.00,216.00 408.00,216.00
             408.00,216.00 408.00,168.00 408.00,168.00
             408.00,168.00 424.00,168.00 424.00,168.00
             424.00,168.00 424.00,136.00 424.00,136.00
             424.00,136.00 440.00,136.00 440.00,136.00
             440.00,136.00 440.00,168.00 440.00,168.00
             440.00,168.00 456.00,168.00 456.00,168.00
             456.00,168.00 456.00,216.00 456.00,216.00
             456.00,216.00 472.00,216.00 472.00,216.00
             472.00,216.00 472.00,248.00 472.00,248.00
             472.00,248.00 488.00,248.00 488.00,248.00
             488.00,248.00 488.00,488.00 488.00,488.00
             488.00,488.00 504.00,488.00 504.00,488.00
             504.00,488.00 504.00,504.00 504.00,504.00
             504.00,504.00 8.00,504.00 8.00,504.00
             8.00,504.00 8.00,488.00 8.00,488.00
             8.00,488.00 40.00,488.00 40.00,488.00
             40.00,488.00 40.00,455.00 40.00,455.00
             32.17,453.58 26.48,449.78 21.09,444.00
             -5.46,415.51 10.18,360.88 46.00,360.01
             49.80,359.92 53.30,359.95 57.00,360.92
             63.07,362.52 67.10,365.22 72.00,369.00
             72.00,369.00 72.00,359.00 72.00,359.00
             45.22,357.69 24.30,326.09 24.00,301.00
             24.00,301.00 24.00,293.00 24.00,293.00
             24.04,267.78 39.59,242.57 64.00,234.36
             73.32,231.22 78.44,232.00 88.00,232.00
             88.00,232.00 88.00,136.00 88.00,136.00
             88.00,136.00 72.00,136.00 72.00,136.00
             72.00,136.00 72.00,120.00 72.00,120.00
             72.00,120.00 216.00,120.00 216.00,120.00
             216.00,120.00 216.00,73.00 216.00,73.00
             216.00,73.00 264.00,64.00 264.00,64.00
             264.00,64.00 264.00,24.00 264.00,24.00
             264.00,24.00 280.00,24.00 280.00,24.00
             280.00,24.00 280.00,60.00 280.00,60.00
             280.00,60.00 294.40,56.27 294.40,56.27
             294.40,56.27 296.00,48.00 296.00,48.00
             296.00,48.00 296.00,8.00 296.00,8.00 Z
           M 376.00,58.00
           C 376.00,58.00 265.00,80.20 265.00,80.20
             265.00,80.20 242.00,84.80 242.00,84.80
             242.00,84.80 232.99,87.73 232.99,87.73
             232.99,87.73 232.00,95.00 232.00,95.00
             232.00,95.00 232.00,426.00 232.00,426.00
             247.86,423.01 260.36,422.53 275.00,430.88
             275.00,430.88 292.00,443.59 292.00,443.59
             294.45,444.29 297.63,442.52 300.00,441.75
             304.77,440.20 307.08,440.04 312.00,440.00
             312.00,440.00 312.00,248.00 312.00,248.00
             312.00,248.00 328.00,248.00 328.00,248.00
             328.00,248.00 328.00,216.00 328.00,216.00
             328.00,216.00 376.00,216.00 376.00,216.00
             376.00,216.00 376.00,58.00 376.00,58.00 Z
           M 248.00,104.00
           C 248.00,104.00 296.00,104.00 296.00,104.00
             296.00,104.00 296.00,168.00 296.00,168.00
             296.00,168.00 248.00,168.00 248.00,168.00
             248.00,168.00 248.00,104.00 248.00,104.00 Z
           M 312.00,104.00
           C 312.00,104.00 360.00,104.00 360.00,104.00
             360.00,104.00 360.00,168.00 360.00,168.00
             360.00,168.00 312.00,168.00 312.00,168.00
             312.00,168.00 312.00,104.00 312.00,104.00 Z
           M 280.00,120.00
           C 280.00,120.00 264.00,120.00 264.00,120.00
             264.00,120.00 264.00,152.00 264.00,152.00
             264.00,152.00 280.00,152.00 280.00,152.00
             280.00,152.00 280.00,120.00 280.00,120.00 Z
           M 344.00,120.00
           C 344.00,120.00 328.00,120.00 328.00,120.00
             328.00,120.00 328.00,152.00 328.00,152.00
             328.00,152.00 344.00,152.00 344.00,152.00
             344.00,152.00 344.00,120.00 344.00,120.00 Z
           M 216.00,136.00
           C 216.00,136.00 104.00,136.00 104.00,136.00
             104.00,136.00 104.00,230.00 104.00,230.00
             104.02,240.61 105.81,238.21 114.00,245.30
             116.96,247.87 121.45,253.62 124.04,254.98
             126.89,256.47 132.23,255.78 136.00,256.46
             141.69,257.49 146.73,259.77 152.00,262.00
             152.00,262.00 152.00,248.00 152.00,248.00
             152.00,248.00 168.00,248.00 168.00,248.00
             168.00,248.00 168.00,264.00 168.00,264.00
             168.00,264.00 156.00,265.00 156.00,265.00
             188.57,285.68 192.48,333.94 169.19,363.00
             161.30,372.85 148.89,381.84 136.00,383.00
             136.00,383.00 136.00,397.00 136.00,397.00
             135.85,404.78 132.09,407.36 127.27,413.00
             127.27,413.00 105.87,438.00 105.87,438.00
             102.44,441.98 90.38,455.22 88.85,459.00
             87.85,461.48 88.01,464.37 88.00,467.00
             88.00,467.00 88.00,488.00 88.00,488.00
             88.00,488.00 120.00,488.00 120.00,488.00
             120.00,479.80 119.35,473.88 122.46,466.00
             129.77,447.49 150.58,435.90 170.00,441.16
             177.23,443.12 181.52,446.04 187.00,451.02
             189.25,453.06 192.37,456.47 195.79,455.34
             198.25,454.53 201.24,449.19 202.90,447.00
             212.82,433.90 215.98,438.42 216.00,426.00
             216.00,426.00 216.00,136.00 216.00,136.00 Z
           M 120.00,152.00
           C 120.00,152.00 136.00,152.00 136.00,152.00
             136.00,152.00 136.00,168.00 136.00,168.00
             136.00,168.00 120.00,168.00 120.00,168.00
             120.00,168.00 120.00,152.00 120.00,152.00 Z
           M 152.00,152.00
           C 152.00,152.00 168.00,152.00 168.00,152.00
             168.00,152.00 168.00,168.00 168.00,168.00
             168.00,168.00 152.00,168.00 152.00,168.00
             152.00,168.00 152.00,152.00 152.00,152.00 Z
           M 184.00,152.00
           C 184.00,152.00 200.00,152.00 200.00,152.00
             200.00,152.00 200.00,168.00 200.00,168.00
             200.00,168.00 184.00,168.00 184.00,168.00
             184.00,168.00 184.00,152.00 184.00,152.00 Z
           M 440.00,184.00
           C 440.00,184.00 424.00,184.00 424.00,184.00
             424.00,184.00 424.00,216.00 424.00,216.00
             424.00,216.00 440.00,216.00 440.00,216.00
             440.00,216.00 440.00,184.00 440.00,184.00 Z
           M 120.00,184.00
           C 120.00,184.00 136.00,184.00 136.00,184.00
             136.00,184.00 136.00,200.00 136.00,200.00
             136.00,200.00 120.00,200.00 120.00,200.00
             120.00,200.00 120.00,184.00 120.00,184.00 Z
           M 152.00,184.00
           C 152.00,184.00 168.00,184.00 168.00,184.00
             168.00,184.00 168.00,200.00 168.00,200.00
             168.00,200.00 152.00,200.00 152.00,200.00
             152.00,200.00 152.00,184.00 152.00,184.00 Z
           M 184.00,184.00
           C 184.00,184.00 200.00,184.00 200.00,184.00
             200.00,184.00 200.00,200.00 200.00,200.00
             200.00,200.00 184.00,200.00 184.00,200.00
             184.00,200.00 184.00,184.00 184.00,184.00 Z
           M 248.00,184.00
           C 248.00,184.00 296.00,184.00 296.00,184.00
             296.00,184.00 296.00,248.00 296.00,248.00
             296.00,248.00 248.00,248.00 248.00,248.00
             248.00,248.00 248.00,184.00 248.00,184.00 Z
           M 280.00,200.00
           C 280.00,200.00 264.00,200.00 264.00,200.00
             264.00,200.00 264.00,232.00 264.00,232.00
             264.00,232.00 280.00,232.00 280.00,232.00
             280.00,232.00 280.00,200.00 280.00,200.00 Z
           M 120.00,216.00
           C 120.00,216.00 136.00,216.00 136.00,216.00
             136.00,216.00 136.00,232.00 136.00,232.00
             136.00,232.00 120.00,232.00 120.00,232.00
             120.00,232.00 120.00,216.00 120.00,216.00 Z
           M 152.00,216.00
           C 152.00,216.00 168.00,216.00 168.00,216.00
             168.00,216.00 168.00,232.00 168.00,232.00
             168.00,232.00 152.00,232.00 152.00,232.00
             152.00,232.00 152.00,216.00 152.00,216.00 Z
           M 184.00,216.00
           C 184.00,216.00 200.00,216.00 200.00,216.00
             200.00,216.00 200.00,232.00 200.00,232.00
             200.00,232.00 184.00,232.00 184.00,232.00
             184.00,232.00 184.00,216.00 184.00,216.00 Z
           M 456.00,232.00
           C 456.00,232.00 344.00,232.00 344.00,232.00
             344.00,232.00 344.00,248.00 344.00,248.00
             344.00,248.00 456.00,248.00 456.00,248.00
             456.00,248.00 456.00,232.00 456.00,232.00 Z
           M 88.00,343.00
           C 108.43,335.87 119.92,317.43 119.92,296.00
             119.92,273.54 104.73,248.18 80.00,248.18
             55.23,248.18 40.08,273.53 40.08,296.00
             40.08,317.65 51.34,335.79 72.00,343.00
             72.00,343.00 72.00,288.00 72.00,288.00
             72.00,288.00 88.00,288.00 88.00,288.00
             88.00,288.00 88.00,343.00 88.00,343.00 Z
           M 184.00,248.00
           C 184.00,248.00 200.00,248.00 200.00,248.00
             200.00,248.00 200.00,264.00 200.00,264.00
             200.00,264.00 184.00,264.00 184.00,264.00
             184.00,264.00 184.00,248.00 184.00,248.00 Z
           M 472.00,264.00
           C 472.00,264.00 328.00,264.00 328.00,264.00
             328.00,264.00 328.00,435.00 328.00,435.00
             328.00,437.16 327.67,441.70 329.60,443.12
             332.75,445.43 341.55,436.42 342.98,433.83
             344.21,431.61 344.00,428.49 344.00,426.00
             344.00,426.00 344.00,280.00 344.00,280.00
             344.00,280.00 456.00,280.00 456.00,280.00
             456.00,280.00 456.00,416.00 456.00,416.00
             456.00,416.00 456.00,456.00 456.00,456.00
             456.00,456.00 456.99,461.37 456.99,461.37
             456.99,461.37 472.00,472.00 472.00,472.00
             472.00,472.00 472.00,264.00 472.00,264.00 Z
           M 248.00,264.00
           C 248.00,264.00 296.00,264.00 296.00,264.00
             296.00,264.00 296.00,328.00 296.00,328.00
             296.00,328.00 248.00,328.00 248.00,328.00
             248.00,328.00 248.00,264.00 248.00,264.00 Z
           M 102.00,354.92
           C 115.32,373.18 141.14,370.69 155.19,354.92
             171.31,336.64 172.00,305.93 156.71,287.01
             150.58,279.42 142.92,273.90 133.00,273.00
             134.31,282.28 135.98,284.46 136.00,295.00
             136.04,321.51 124.79,341.26 102.00,354.92 Z
           M 280.00,280.00
           C 280.00,280.00 264.00,280.00 264.00,280.00
             264.00,280.00 264.00,312.00 264.00,312.00
             264.00,312.00 280.00,312.00 280.00,312.00
             280.00,312.00 280.00,280.00 280.00,280.00 Z
           M 392.00,296.00
           C 392.00,296.00 360.00,296.00 360.00,296.00
             360.00,296.00 360.00,426.00 360.00,426.00
             374.62,423.25 377.38,423.25 392.00,426.00
             392.00,426.00 392.00,296.00 392.00,296.00 Z
           M 440.00,296.00
           C 440.00,296.00 408.00,296.00 408.00,296.00
             408.00,296.00 408.00,426.00 408.00,426.00
             408.02,438.24 411.18,434.19 420.32,446.00
             422.44,448.74 425.14,454.12 428.18,455.40
             430.28,456.28 437.37,456.00 440.00,456.00
             440.00,456.00 440.00,296.00 440.00,296.00 Z
           M 248.00,344.00
           C 248.00,344.00 296.00,344.00 296.00,344.00
             296.00,344.00 296.00,408.00 296.00,408.00
             296.00,408.00 248.00,408.00 248.00,408.00
             248.00,408.00 248.00,344.00 248.00,344.00 Z
           M 280.00,360.00
           C 280.00,360.00 264.00,360.00 264.00,360.00
             264.00,360.00 264.00,392.00 264.00,392.00
             264.00,392.00 280.00,392.00 280.00,392.00
             280.00,392.00 280.00,360.00 280.00,360.00 Z
           M 89.00,366.00
           C 89.00,366.00 88.00,388.00 88.00,388.00
             88.00,388.00 88.00,433.00 88.00,433.00
             94.18,428.48 106.75,412.66 112.42,406.00
             116.63,401.05 119.74,398.83 119.98,392.00
             120.41,380.09 117.43,385.06 104.00,377.69
             98.03,374.41 93.83,370.72 89.00,366.00 Z
           M 46.00,376.34
           C 26.15,380.72 20.73,403.81 26.36,421.00
             29.63,430.99 38.42,441.08 50.00,439.50
             80.89,435.28 77.99,374.28 46.00,376.34 Z
           M 288.00,470.00
           C 282.15,458.92 277.80,450.31 266.00,444.38
             240.44,431.51 212.30,448.15 208.00,476.00
             208.00,476.00 194.00,472.13 194.00,472.13
             189.42,471.76 186.97,473.41 184.21,472.13
             181.88,470.70 179.67,466.31 177.67,464.09
             172.85,458.74 164.19,455.25 157.00,456.47
             148.78,457.85 141.99,462.22 138.56,470.00
             136.78,473.92 134.50,483.87 138.56,486.98
             140.23,488.24 143.96,488.00 146.00,488.00
             146.00,488.00 463.00,488.00 463.00,488.00
             451.41,471.82 433.89,469.83 416.00,475.00
             414.09,466.64 411.30,459.61 405.54,453.09
             393.73,439.74 372.54,436.39 357.00,444.90
             342.85,452.66 343.34,459.74 335.00,470.00
             328.24,460.56 322.52,456.88 311.00,457.00
             307.60,457.04 305.20,457.14 302.00,458.53
             296.63,460.86 292.09,465.91 288.00,470.00 Z
           M 72.00,447.00
           C 72.00,447.00 56.00,455.00 56.00,455.00
             56.00,455.00 56.00,488.00 56.00,488.00
             56.00,488.00 72.00,488.00 72.00,488.00
             72.00,488.00 72.00,447.00 72.00,447.00 Z" />
</svg>
